<?xml version="1.0" encoding="UTF-8" standalone="no"?>
<!-- Generator: Adobe Illustrator 19.1.0, SVG Export Plug-In . SVG Version: 6.00 Build 0)  -->
<svg id="Ebene_1" style="enable-background:new -380.5 426.4 163 28.7" xmlns="http://www.w3.org/2000/svg" xml:space="preserve" viewBox="-380.5 426.4 163 28.7" version="1.1" y="0px" x="0px" xmlns:xlink="http://www.w3.org/1999/xlink">
<style type="text/css">
	.st0{fill:#34B9D3;}
</style>
	<path class="st0" d="m-365.9 454.9h-5.1c-5.2 0-9.5-5-9.5-10.2v-8c0-5.3 4.2-10.3 9.5-10.3h4.8c0.7 0 1.2 0.6 1.2 1.3v2c0 0.7-0.6 1.2-1.2 1.2h-2.3c-3.9 0-6.1 2.4-6.1 5.7v8c0 3.2 2.2 5.7 6.1 5.7h2.6c0.7 0 1.3 0.6 1.3 1.2v2.1c-0.1 0.8-0.6 1.3-1.3 1.3"/>
	<path class="st0" d="m-351.1 440.2c0-1.7-1.3-2.8-2.9-2.8-1.7 0-2.9 1.2-2.9 2.8v2.4h5.9v-2.4h-0.1zm3.5 5.7h-9.3v1.2c0 2.8 1.2 3.7 3.6 3.7h5.1c0.7 0 1.3 0.6 1.3 1.3v1.5c0 0.7-0.6 1.2-1.3 1.2h-6.2c-5.5 0-8-4-8-7.8v-6.2c0-4.1 3.6-7.4 7.4-7.4h1.7c3.7 0 7.6 3.3 7.6 7.4v3.1c0.1 1.2-0.8 2-1.9 2"/>
	<path class="st0" d="m-294.5 455.1h-1.9c-1 0-1.7-0.8-1.7-1.7v-13.7l1.3-7.3h-1.2l-2.3 6.3-3.2 7c-0.3 0.6-0.9 1-1.6 1h-2.1c-0.7 0-1.3-0.4-1.6-1l-3.1-7.1-2.3-6.3h-1.3l1.3 7.3v13.8c0 0.9-0.8 1.7-1.7 1.7h-1.9c-0.9 0-1.7-0.8-1.7-1.7v-25.3c0-0.9 0.8-1.7 1.7-1.7h4.7c0.7 0 1.3 0.5 1.6 1.1l4.1 9.9 0.6 3.9h1.2l0.6-3.9 4.1-9.9c0.3-0.6 1-1.1 1.7-1.1h4.7c1 0 1.7 0.8 1.7 1.7v25.3c0 0.9-0.8 1.7-1.7 1.7"/>
	<path class="st0" d="m-241.8 455.1h-1.9c-1 0-1.7-0.8-1.7-1.7v-13.7l1.3-7.3h-1.2l-2.3 6.3-3.1 7.1c-0.3 0.6-0.9 1-1.6 1h-2.2c-0.7 0-1.3-0.4-1.6-1l-3.1-7.1-2.3-6.4h-1.2l1.3 7.3v13.8c0 0.9-0.7 1.7-1.7 1.7h-1.9c-0.9 0-1.7-0.8-1.7-1.7v-25.3c0-0.9 0.8-1.7 1.7-1.7h4.7c0.7 0 1.3 0.5 1.6 1.1l4.1 9.9 0.6 3.9h1.2l0.6-3.9 4.1-9.9c0.2-0.6 0.9-1.1 1.6-1.1h4.7c1 0 1.7 0.8 1.7 1.7v25.3c0 0.9-0.8 1.7-1.7 1.7"/>
	<path class="st0" d="m-324.5 440.8h-16c-1.1 0-1.6 0.8-1.6 1.6 0 1 0.7 1.6 1.6 1.6h16c0.9 0 1.6-0.7 1.6-1.6 0-0.8-0.5-1.6-1.6-1.6"/>
	<path class="st0" d="m-271.8 440.8h-16c-1.1 0-1.6 0.8-1.6 1.6 0 1 0.7 1.6 1.6 1.6h16c0.9 0 1.6-0.7 1.6-1.6 0-0.8-0.5-1.6-1.6-1.6"/>
	<path class="st0" d="m-219.1 440.8h-16c-1.1 0-1.6 0.8-1.6 1.6 0 1 0.7 1.6 1.6 1.6h16c0.9 0 1.6-0.7 1.6-1.6 0-0.8-0.5-1.6-1.6-1.6"/>
	<path class="st0" d="m-271.8 440.8h-16c-1.1 0-1.6 0.8-1.6 1.6 0 1 0.7 1.6 1.6 1.6h16c0.9 0 1.6-0.7 1.6-1.6 0-0.8-0.5-1.6-1.6-1.6"/>
</svg>
